<svg width="8" height="242" viewBox="0 0 8 242" fill="none" xmlns="http://www.w3.org/2000/svg">
<path d="M4.39677 0.42379C4.2015 0.228528 3.88492 0.228528 3.68966 0.42379L0.507679 3.60577C0.312417 3.80103 0.312417 4.11762 0.507679 4.31288C0.702941 4.50814 1.01952 4.50814 1.21479 4.31288L4.04321 1.48445L6.87164 4.31288C7.0669 4.50814 7.38348 4.50814 7.57875 4.31288C7.77401 4.11762 7.77401 3.80103 7.57875 3.60577L4.39677 0.42379ZM3.68967 240.983C3.88493 241.178 4.20151 241.178 4.39678 240.983L7.57876 237.801C7.77402 237.606 7.77402 237.289 7.57876 237.094C7.38349 236.899 7.06691 236.899 6.87165 237.094L4.04322 239.922L1.2148 237.094C1.01953 236.899 0.702952 236.899 0.507689 237.094C0.312427 237.289 0.312427 237.606 0.507689 237.801L3.68967 240.983ZM3.54321 0.777344L3.54322 240.629L4.54322 240.629L4.54321 0.777344L3.54321 0.777344Z" fill="black"/>
</svg>
