<svg width="8" height="257" viewBox="0 0 8 257" fill="none" xmlns="http://www.w3.org/2000/svg">
<path d="M4.34916 1.04733C4.1539 0.852063 3.83731 0.852063 3.64205 1.04733L0.460072 4.22931C0.26481 4.42457 0.26481 4.74115 0.460072 4.93641C0.655334 5.13168 0.971916 5.13168 1.16718 4.93641L3.99561 2.10799L6.82403 4.93641C7.01929 5.13167 7.33588 5.13167 7.53114 4.93641C7.7264 4.74115 7.7264 4.42457 7.53114 4.22931L4.34916 1.04733ZM3.64206 256.423C3.83733 256.618 4.15391 256.618 4.34917 256.423L7.53115 253.241C7.72641 253.046 7.72641 252.729 7.53115 252.534C7.33589 252.339 7.01931 252.339 6.82404 252.534L3.99562 255.362L1.16719 252.534C0.971927 252.339 0.655345 252.339 0.460083 252.534C0.26482 252.729 0.26482 253.046 0.460083 253.241L3.64206 256.423ZM3.49561 1.40088L3.49562 256.069L4.49562 256.069L4.49561 1.40088L3.49561 1.40088Z" fill="black"/>
</svg>
