<svg width="200" height="201" viewBox="0 0 200 201" fill="none" xmlns="http://www.w3.org/2000/svg">
<g clip-path="url(#clip0_16_192)">
<mask id="mask0_16_192" style="mask-type:luminance" maskUnits="userSpaceOnUse" x="0" y="84" width="200" height="22">
<path d="M200 84.5H0V105.833H200V84.5Z" fill="white"/>
</mask>
<g mask="url(#mask0_16_192)">
<path fill-rule="evenodd" clip-rule="evenodd" d="M147.734 85.8072C150.207 85.8072 156.422 88.3329 156.422 95.5547C156.422 101.979 151.305 105.834 147.596 105.834C142.651 105.834 138.736 102.177 138.736 96.1297C138.736 90.0822 142.583 85.8072 147.734 85.8072ZM139.423 85.8072V86.4936C136.264 88.0889 134.89 89.8169 134.89 94.0038C134.89 98.1907 134.409 105.633 127.61 105.633C122.664 105.633 121.635 99.1869 117.995 99.5199L117.651 99.121L126.442 94.6679L126.648 95.1336C124.313 97.3262 126.235 99.5199 127.473 99.5199C129.876 99.5199 130.907 97.4403 130.907 93.7376C130.907 90.0358 128.812 87.8227 126.408 86.3609V85.8072H139.423ZM190.179 85.3639C193.27 85.3639 195.262 86.5604 196.635 86.5604C198.008 86.5604 199.038 86.1616 199.519 85.7627L200 86.0948L196.086 93.1394L195.467 92.7406C196.017 90.1491 194.094 88.9525 192.034 88.9525C189.973 88.9525 189.355 90.4811 189.355 91.0794C189.355 94.2033 196.703 94.336 196.703 99.5858C196.703 103.706 193.544 105.501 190.522 105.501C187.5 105.501 186.334 104.57 184.684 104.57C183.036 104.57 182.693 104.703 182.075 105.235C182.075 105.235 180.882 105.281 180.604 105.296L180.564 105.298L183.722 96.9275L184.203 97.0611C184.548 99.1202 185.165 101.381 186.882 101.381C188.6 101.381 188.875 100.317 188.875 99.52C188.875 97.6584 182.762 95.8645 182.762 91.6109C182.762 87.8228 187.089 85.3639 190.179 85.3639ZM29.8762 85.8072C32.3495 85.8072 33.2419 88.3941 33.2419 90.0358C33.2419 91.6776 32.4866 93.3388 29.8762 95.1336C31.0438 98.8548 33.2419 102.71 34.959 104.438V105.301H27.9533C28.9838 101.779 27.4038 96.2633 25.0685 96.2633C22.7333 96.2633 23.7638 102.311 25.6181 105.301H17.1019C19.0933 102.244 20.3295 98.1685 20.3295 95.5547L20.3291 95.1166C20.321 92.6204 20.1769 89.8657 17.5828 85.8072H29.8762ZM105.015 85.8072C107.487 85.8072 108.379 88.3941 108.379 90.0358C108.379 91.6776 107.624 93.3388 105.015 95.1336C106.181 98.8548 108.379 102.71 110.096 104.438V105.301H103.091C104.121 101.779 102.542 96.2633 100.206 96.2633C97.8717 96.2633 98.9012 102.311 100.756 105.301H92.2391C94.2315 102.244 95.4669 98.1685 95.4669 95.5547L95.466 95.1166C95.4584 92.6204 95.3145 89.8657 92.7202 85.8072H105.015ZM89.1491 85.8075L90.4539 92.2752H89.8358C86.9501 90.0352 84.4091 89.4842 82.1434 89.4842C80.8815 89.4842 80.151 90.8134 80.151 91.7437C80.151 92.674 80.9758 93.9373 85.0967 93.1396V97.1271C83.0358 96.13 80.5634 96.2636 80.5634 98.5889C80.5634 99.9756 81.3234 101.153 82.9025 101.153C84.4825 101.153 87.5005 100.052 89.6291 98.3895H90.4539L89.011 105.301H74.0043C75.9967 102.244 77.232 98.1678 77.232 95.554C77.232 92.9402 77.232 90.1047 74.4853 85.8075H89.1491ZM14.229 85.8073L17.5824 94.2033L16.9643 94.668C15.7966 92.4085 13.4624 90.6805 12.6147 90.6805C12.5942 90.6805 12.5734 90.6804 12.5527 90.6803L12.4285 90.6792C12.4079 90.679 12.3872 90.6789 12.3665 90.6789L12.243 90.6808C11.5258 90.7046 10.8747 90.9961 10.8747 93.8703C10.8747 97.2382 12.4309 102.022 14.3547 105.301H3.2281C5.15096 102.022 6.7081 97.2382 6.7081 93.8703C6.7081 90.9961 6.0578 90.7046 5.34017 90.6808L5.2166 90.6789C5.19593 90.6789 5.17524 90.679 5.15452 90.6792L5.0302 90.6803L4.9681 90.6805C4.12144 90.6805 1.7862 92.4085 0.618583 94.668L0.000488281 94.2033L3.35382 85.8073H14.229ZM49.5886 85.8075V88.7534C49.5886 92.9403 53.2972 99.9849 55.9067 105.302H48.901C49.2448 102.112 47.4591 98.4564 45.0553 98.4564C42.6515 98.4564 41.8277 101.779 42.5829 105.302H35.8515C37.6182 101.199 41.3467 91.9432 41.3467 88.4213V85.8075H49.5886ZM65.3158 85.8075C67.7882 85.8075 74.0043 88.3322 74.0043 95.554C74.0043 102.776 67.7205 105.301 65.1786 105.301H56.6624C58.6539 102.244 59.8901 98.1678 59.8901 95.554C59.8901 92.9402 59.8901 90.1047 57.1434 85.8075H65.3158ZM171.567 85.8073L172.872 92.2759H172.253C169.369 90.0359 166.827 89.484 164.56 89.484C163.299 89.484 162.569 90.8132 162.569 91.7435C162.569 92.6747 163.393 93.9371 167.515 93.1394V97.1269C165.454 96.1298 162.981 96.2634 162.981 98.5896C162.981 99.9754 163.741 101.152 165.32 101.152C166.9 101.152 169.917 100.051 172.047 98.3893H172.872L171.429 105.301H156.422C158.414 102.244 159.65 98.1685 159.65 95.5547L159.649 95.1167C159.641 92.6205 159.497 89.8658 156.903 85.8073H171.567ZM146.429 92.0987C144.153 92.0987 142.308 93.8842 142.308 96.0861C142.308 98.289 144.153 100.074 146.429 100.074C148.705 100.074 150.55 98.289 150.55 96.0861C150.55 93.8842 148.705 92.0987 146.429 92.0987ZM63.8739 89.4842C63.3929 92.3419 63.5986 96.7283 64.4234 99.3866C72.1158 97.4592 69.3682 90.4813 63.8739 89.4842ZM45.3296 91.0129C45.0553 91.9905 44.162 94.8009 43.3382 96.1301H47.6648C46.5658 94.6683 45.8791 93.2724 45.3296 91.0129ZM99.4507 88.8198V94.6679C102.335 94.0697 103.091 92.8073 103.091 91.1461C103.091 89.4839 101.031 88.8198 99.4507 88.8198ZM24.3133 88.8198V94.6679C27.1981 94.0697 27.9533 92.8073 27.9533 91.1461C27.9533 89.4839 25.8933 88.8198 24.3133 88.8198ZM178.64 84.5C180.289 84.5 181.936 85.0983 181.936 87.2251C181.936 89.3519 180.151 91.2126 177.541 93.4721L177.129 93.2726C177.679 92.475 178.022 91.6114 178.022 90.3481C178.022 89.0857 175.894 88.9522 175.894 86.9589C175.894 85.7624 176.993 84.5 178.64 84.5Z" fill="#C81E24"/>
</g>
</g>
<defs>
<clipPath id="clip0_16_192">
<rect width="200" height="21.3333" fill="white" transform="translate(0 84.5)"/>
</clipPath>
</defs>
</svg>
