<svg width="895" height="53" viewBox="0 0 895 53" fill="none" xmlns="http://www.w3.org/2000/svg">
<mask id="mask0_16_303" style="mask-type:luminance" maskUnits="userSpaceOnUse" x="0" y="18" width="151" height="17">
<path d="M150.276 18.5886H0.275879V34.5886H150.276V18.5886Z" fill="white"/>
</mask>
<g mask="url(#mask0_16_303)">
<path fill-rule="evenodd" clip-rule="evenodd" d="M111.076 19.569C112.931 19.569 117.592 21.4633 117.592 26.8796C117.592 31.6977 113.755 34.5888 110.972 34.5888C107.264 34.5888 104.328 31.8466 104.328 27.3109C104.328 22.7753 107.213 19.569 111.076 19.569ZM104.843 19.569V20.0838C102.474 21.2803 101.443 22.5763 101.443 25.7165C101.443 28.8567 101.082 34.4386 95.9831 34.4386C92.2738 34.4386 91.5017 29.6038 88.7717 29.8535L88.5138 29.5544L95.1074 26.2146L95.2617 26.5638C93.5102 28.2083 94.9524 29.8535 95.8802 29.8535C97.6831 29.8535 98.4559 28.2939 98.4559 25.5168C98.4559 22.7405 96.8845 21.0807 95.0817 19.9843V19.569H104.843ZM142.91 19.2366C145.228 19.2366 146.722 20.1339 147.752 20.1339C148.782 20.1339 149.555 19.8348 149.915 19.5357L150.276 19.7847L147.34 25.0682L146.876 24.7691C147.289 22.8254 145.846 21.928 144.301 21.928C142.755 21.928 142.292 23.0745 142.292 23.5232C142.292 25.8661 147.803 25.9656 147.803 29.903C147.803 32.9931 145.434 34.3392 143.167 34.3392C140.901 34.3392 140.026 33.6414 138.789 33.6414C137.553 33.6414 137.295 33.7409 136.832 34.1395C136.832 34.1395 135.937 34.1743 135.729 34.1859L135.699 34.1872L138.067 27.9092L138.428 28.0094C138.687 29.5538 139.15 31.2491 140.437 31.2491C141.726 31.2491 141.932 30.4512 141.932 29.8536C141.932 28.4574 137.347 27.112 137.347 23.9218C137.347 21.0807 140.592 19.2366 142.91 19.2366ZM22.6829 19.569C24.5379 19.569 25.2072 21.5092 25.2072 22.7405C25.2072 23.9718 24.6407 25.2177 22.6829 26.5638C23.5586 29.3547 25.2072 32.2459 26.495 33.5419V34.1895H21.2407C22.0136 31.5481 20.8286 27.4111 19.0772 27.4111C17.3257 27.4111 18.0986 31.9467 19.4893 34.1895H13.1022C14.5957 31.8967 15.5229 28.84 15.5229 26.8796L15.5226 26.5511C15.5165 24.6789 15.4084 22.6129 13.4629 19.569H22.6829ZM79.0367 19.569C80.891 19.569 81.5602 21.5092 81.5602 22.7405C81.5602 23.9718 80.9938 25.2177 79.0367 26.5638C79.9117 29.3547 81.5602 32.2459 82.8481 33.5419V34.1895H77.5938C78.3667 31.5481 77.1824 27.4111 75.4302 27.4111C73.6795 27.4111 74.4517 31.9467 75.8431 34.1895H69.4551C70.9494 31.8967 71.8759 28.84 71.8759 26.8796L71.8752 26.5511C71.8695 24.6789 71.7617 22.6129 69.8159 19.569H79.0367ZM67.1376 19.5692L68.1162 24.42H67.6526C65.4883 22.74 63.5826 22.3268 61.8833 22.3268C60.9369 22.3268 60.389 23.3236 60.389 24.0214C60.389 24.7191 61.0076 25.6666 64.0983 25.0683V28.059C62.5526 27.3111 60.6983 27.4113 60.6983 29.1553C60.6983 30.1953 61.2683 31.0781 62.4526 31.0781C63.6376 31.0781 65.9012 30.2523 67.4976 29.0057H68.1162L67.034 34.1897H55.779C57.2733 31.8969 58.1997 28.8395 58.1997 26.8791C58.1997 24.9188 58.1997 22.7922 56.1397 19.5692H67.1376ZM10.9475 19.5691L13.4625 25.8661L12.9989 26.2146C12.1232 24.52 10.3725 23.224 9.73681 23.224C9.72138 23.224 9.70581 23.224 9.69031 23.2238L9.59716 23.223C9.58166 23.2229 9.56616 23.2228 9.55066 23.2228L9.45802 23.2242C8.92009 23.2421 8.43181 23.4607 8.43181 25.6164C8.43181 28.1423 9.59895 31.7305 11.0418 34.1896H2.69683C4.13898 31.7305 5.30683 28.1423 5.30683 25.6164C5.30683 23.4607 4.81911 23.2421 4.28088 23.2242L4.18821 23.2228C4.17271 23.2228 4.15718 23.2229 4.14165 23.223L4.04841 23.2238L4.00183 23.224C3.36683 23.224 1.61541 24.52 0.739694 26.2146L0.276123 25.8661L2.79112 19.5691H10.9475ZM37.4672 19.5693V21.7787C37.4672 24.9188 40.2487 30.2023 42.2058 34.1898H36.9515C37.2094 31.7975 35.8701 29.0559 34.0672 29.0559C32.2644 29.0559 31.6465 31.5477 32.2129 34.1898H27.1644C28.4894 31.1129 31.2858 24.171 31.2858 21.5296V19.5693H37.4672ZM49.2626 19.5692C51.1169 19.5692 55.779 21.4628 55.779 26.8791C55.779 32.2955 51.0662 34.1897 49.1597 34.1897H42.7726C44.2662 31.8969 45.1933 28.8395 45.1933 26.8791C45.1933 24.9188 45.1933 22.7922 43.1333 19.5692H49.2626ZM128.951 19.5691L129.93 24.4206H129.465C127.302 22.7406 125.396 22.3266 123.696 22.3266C122.75 22.3266 122.202 23.3235 122.202 24.0212C122.202 24.7197 122.82 25.6665 125.912 25.0682V28.0588C124.366 27.311 122.512 27.4112 122.512 29.1559C122.512 30.1952 123.082 31.0779 124.266 31.0779C125.451 31.0779 127.714 30.2522 129.311 29.0056H129.93L128.847 34.1896H117.592C119.086 31.8967 120.013 28.84 120.013 26.8797L120.012 26.5511C120.007 24.679 119.899 22.613 117.953 19.5691H128.951ZM110.097 24.2876C108.39 24.2876 107.007 25.6267 107.007 27.2782C107.007 28.9304 108.39 30.2688 110.097 30.2688C111.805 30.2688 113.188 28.9304 113.188 27.2782C113.188 25.6267 111.805 24.2876 110.097 24.2876ZM48.1812 22.3268C47.8204 24.4701 47.9747 27.7598 48.5933 29.7536C54.3626 28.308 52.3019 23.0746 48.1812 22.3268ZM34.2729 23.4733C34.0672 24.2065 33.3972 26.3143 32.7794 27.3112H36.0244C35.2001 26.2148 34.6851 25.1679 34.2729 23.4733ZM74.8638 21.8285V26.2146C77.0274 25.7659 77.5938 24.8191 77.5938 23.5732C77.5938 22.3266 76.0488 21.8285 74.8638 21.8285ZM18.5107 21.8285V26.2146C20.6743 25.7659 21.2407 24.8191 21.2407 23.5732C21.2407 22.3266 19.6957 21.8285 18.5107 21.8285ZM134.256 18.5886C135.492 18.5886 136.728 19.0373 136.728 20.6324C136.728 22.2276 135.389 23.6231 133.432 25.3177L133.122 25.1681C133.535 24.5698 133.792 23.9222 133.792 22.9747C133.792 22.0279 132.196 21.9278 132.196 20.4328C132.196 19.5354 133.02 18.5886 134.256 18.5886Z" fill="#C81E24"/>
</g>
<path fill-rule="evenodd" clip-rule="evenodd" d="M383.981 24.7058C383.981 20.655 382.386 18.2644 379.595 18.2644C379.595 18.2644 379.063 18.3308 378.798 18.3308C377.801 18.4636 377.535 18.7293 377.535 19.991V29.6863C377.535 31.0144 378.332 31.0808 379.529 31.1472C382.386 31.28 383.981 28.823 383.981 24.7058ZM385.377 18.7957C386.706 20.1902 387.437 22.2488 387.437 24.7722C387.437 27.5613 386.507 29.8855 384.779 31.28C383.45 32.3425 381.788 32.8737 379.263 32.8737C376.405 32.8737 374.478 32.6081 373.813 32.5417C373.149 32.4089 372.817 32.3425 372.817 31.8776C372.817 31.5456 373.016 31.2136 373.348 31.2136H373.813C373.946 31.2136 374.146 31.0808 374.212 30.8816C374.279 30.6823 374.279 30.5495 374.279 29.9519V19.5925C374.279 18.9949 374.279 18.8621 374.212 18.6629C374.146 18.4636 373.946 18.3308 373.813 18.3308H373.348C373.016 18.3308 372.817 18.0652 372.817 17.6668C372.817 17.1355 373.149 17.0691 373.813 17.0027C374.478 16.9363 376.339 16.6707 379.263 16.6707C382.187 16.7371 383.981 17.3347 385.377 18.7957ZM369.294 24.7722C369.294 20.8543 367.699 18.3972 365.108 18.3972C362.582 18.3972 360.987 20.8543 360.987 24.8386C360.987 28.7566 362.516 31.1472 365.108 31.1472C367.699 31.1472 369.294 28.6902 369.294 24.7722ZM354.142 24.7722C354.142 20.8543 352.547 18.3972 349.955 18.3972C347.43 18.3972 345.835 20.8543 345.835 24.8386C345.835 28.7566 347.363 31.1472 349.955 31.1472C352.547 31.1472 354.142 28.6902 354.142 24.7722ZM365.108 16.7371C369.693 16.7371 372.684 19.8582 372.684 24.7058C372.684 29.6863 369.693 32.8073 365.041 32.8073C361.319 32.8073 358.661 30.6823 357.797 27.2956V27.2292C357.731 26.8308 357.398 26.8308 357.266 27.2292C357.266 27.2292 357.266 27.2292 357.266 27.2956C356.402 30.7487 353.743 32.8073 349.955 32.8073C345.37 32.8073 342.446 29.6198 342.446 24.8386C342.446 19.8582 345.37 16.7371 350.022 16.7371C353.81 16.7371 356.535 18.8621 357.332 22.3152C357.398 22.7136 357.731 22.7136 357.797 22.3152C358.661 18.7957 361.319 16.7371 365.108 16.7371ZM342.645 19.1941L342.313 17.6004C342.246 17.2019 341.98 17.0027 341.515 17.0027H331.547C330.749 17.0027 330.483 17.2019 330.483 17.6668C330.483 17.9988 330.749 18.3308 331.081 18.3308H331.547C331.68 18.3308 331.879 18.4636 331.945 18.6629C332.012 18.8621 332.012 18.9949 332.012 19.5925V29.9519C332.012 30.5495 332.012 30.6823 331.945 30.8816C331.879 31.0808 331.68 31.2136 331.547 31.2136H331.081C330.749 31.2136 330.483 31.4792 330.483 31.8776C330.483 32.4089 330.749 32.5417 331.547 32.5417H335.8C336.664 32.5417 336.93 32.4089 336.93 31.8776C336.93 31.5456 336.664 31.2136 336.332 31.2136H335.8C335.601 31.2136 335.401 31.0808 335.335 30.8816C335.268 30.7487 335.268 30.6159 335.268 29.9519V26.1667C335.268 25.6355 335.335 25.4363 335.468 25.3035C335.601 25.2371 335.733 25.2371 336.398 25.2371H338.325C339.322 25.2371 339.455 25.3035 339.522 25.7683V25.9011C339.588 26.2995 339.787 26.4988 340.12 26.4988C340.585 26.4988 340.784 26.2331 340.784 25.4363V23.5105C340.784 22.7136 340.651 22.448 340.12 22.448C339.787 22.448 339.588 22.6472 339.522 23.0457V23.1785C339.455 23.6433 339.322 23.7097 338.325 23.7097H336.398C335.733 23.7097 335.601 23.7097 335.468 23.6433C335.335 23.5769 335.268 23.3113 335.268 22.78V20.0574C335.268 18.7957 335.401 18.6629 336.664 18.6629H339.654C340.718 18.6629 341.183 18.7293 341.449 19.3269C341.582 19.5925 341.648 19.7918 341.648 19.7918C341.781 20.1238 342.047 20.1238 342.246 20.1238C342.579 20.1238 342.778 19.7918 342.645 19.1941ZM397.073 25.2371C396.342 24.5066 395.744 24.0417 393.883 22.7136C393.418 22.3816 393.019 22.116 392.754 21.9168C392.288 21.5847 391.956 21.1863 391.69 20.8543C391.491 20.5886 391.425 20.2566 391.425 19.9246C391.425 18.9949 392.089 18.3972 393.152 18.3972C393.883 18.3972 394.681 18.6629 395.345 19.1277C395.811 19.5261 395.944 19.5925 396.475 20.3894C396.675 20.655 396.808 20.7879 397.073 20.7879C397.472 20.7879 397.738 20.5222 397.738 20.2566C397.738 20.1902 397.738 20.0574 397.671 19.9246L397.14 17.4011C397.073 17.0027 396.808 16.7371 396.475 16.7371C396.276 16.7371 396.209 16.7371 396.01 16.9363C395.811 17.0691 395.611 17.1355 395.478 17.1355C395.412 17.1355 395.279 17.1355 395.146 17.0691C394.814 17.0027 394.614 16.9363 394.548 16.9363C393.883 16.8035 393.219 16.7371 392.554 16.7371C390.029 16.7371 388.301 18.198 388.301 20.4558C388.301 21.3855 388.567 22.1824 389.165 22.9128C389.896 23.7097 390.095 23.9089 392.288 25.4363C393.618 26.366 394.216 26.8972 394.747 27.4284C395.213 27.9597 395.478 28.5574 395.478 29.155C395.478 30.3503 394.482 31.2136 392.953 31.2136C391.624 31.2136 390.361 30.4831 389.564 29.3542L389.231 28.8894C389.099 28.6902 388.899 28.5573 388.633 28.5573C388.235 28.5573 387.902 28.8894 387.902 29.2878C387.902 29.4206 387.902 29.6198 387.969 29.7527L388.567 32.0769C388.7 32.6081 388.899 32.8737 389.298 32.8737C389.497 32.8737 389.63 32.8073 389.83 32.6745C390.029 32.4753 390.095 32.4753 390.295 32.4753C390.428 32.4753 390.494 32.4753 390.826 32.6081C391.491 32.8073 392.421 32.9401 393.219 32.9401C396.276 32.9401 398.27 31.1472 398.27 28.4909C398.336 27.1628 397.871 26.0339 397.073 25.2371ZM292.47 18.1316C294.464 18.8621 295.261 21.0535 295.261 24.4402C295.261 28.4909 293.6 31.0808 290.941 31.0808C288.217 31.0808 286.622 28.6238 286.622 24.5066C286.622 21.8503 287.02 19.7918 288.881 17.9324C290.742 16.073 292.47 16.3387 294.198 14.1473C294.929 13.2176 294.929 12.4207 294.331 12.2879C293.799 12.1551 293.467 12.8191 293.002 13.1512C291.141 14.3465 289.081 13.2176 287.951 11.9559C286.821 10.6277 285.359 10.6941 284.495 10.8934C284.096 10.9598 283.897 10.6941 284.296 10.3621C285.226 9.63165 287.153 9.56525 288.35 10.6941C289.346 11.6238 290.742 12.3543 291.739 12.1551C292.337 12.0223 292.403 11.3582 291.739 11.0926C289.812 10.4285 290.011 8.23713 287.419 7.50666C284.362 6.64339 281.571 9.49884 280.773 12.4207C280.574 13.2176 281.039 13.7488 281.837 13.4168C284.362 12.2879 285.027 13.8816 287.22 14.7449C288.217 15.1433 289.346 15.0105 290.011 14.9441C290.543 14.8113 290.543 15.409 290.277 15.4754C288.815 15.9402 287.353 16.7371 286.422 17.4011C284.296 18.7957 283.099 21.3191 283.099 24.573C283.099 29.6198 286.223 32.9401 290.941 32.9401C295.859 32.9401 298.916 29.6198 298.916 24.4402C298.916 21.4519 297.986 19.2605 296.059 17.866C294.995 17.0691 293.998 16.7371 292.935 16.8035C291.672 16.8035 291.539 17.7332 292.47 18.1316ZM268.811 18.2644C269.21 18.198 269.742 18.2644 269.742 19.4597V29.8855C269.742 30.4831 269.742 30.6159 269.675 30.8152C269.609 30.948 269.409 31.0808 269.276 31.0808H268.811C268.479 31.0808 268.213 31.4128 268.213 31.7448C268.213 32.2761 268.479 32.4089 269.276 32.4089H273.463C274.194 32.4089 274.46 32.2761 274.46 31.7448C274.46 31.3464 274.194 31.0808 273.928 31.0808H273.463C273.264 31.0808 273.064 30.948 272.998 30.8152C272.931 30.6159 272.931 30.4831 272.931 29.8855V26.366C272.931 25.3035 272.998 25.2371 273.862 25.2371H276.985C277.451 25.2371 277.65 25.3035 277.783 25.4363C277.916 25.5691 277.916 25.6355 277.916 26.4988V29.8855C277.916 30.4831 277.916 30.6159 277.849 30.8152C277.783 30.948 277.583 31.0808 277.451 31.0808H276.985C276.653 31.0808 276.387 31.4128 276.387 31.7448C276.387 32.2761 276.653 32.4089 277.451 32.4089H281.637C282.435 32.4089 282.701 32.2761 282.701 31.7448C282.701 31.4128 282.435 31.0808 282.103 31.0808H281.637C281.504 31.0808 281.305 30.948 281.239 30.8152C281.172 30.6159 281.172 30.4831 281.172 29.8855V19.4597C281.172 18.8621 281.172 18.7293 281.239 18.5301C281.305 18.3972 281.504 18.2644 281.637 18.2644H282.169C282.501 18.2644 282.767 17.9988 282.767 17.6004C282.767 17.0691 282.501 16.9363 281.704 16.9363H277.517C276.72 16.9363 276.454 17.0691 276.454 17.6004C276.454 17.9988 276.72 18.2644 277.052 18.2644H277.517C277.65 18.2644 277.849 18.3972 277.916 18.5301C277.982 18.7293 277.982 18.8621 277.982 19.4597V22.3152C277.982 23.1785 277.982 23.2449 277.849 23.3777C277.716 23.5105 277.517 23.5769 277.052 23.5769H273.928C273.064 23.5769 272.998 23.5105 272.998 22.448V19.4597C272.998 18.8621 272.998 18.7293 273.064 18.5301C273.131 18.3972 273.33 18.2644 273.53 18.2644H273.995C274.327 18.2644 274.593 17.9988 274.593 17.6004C274.593 17.0691 274.327 16.9363 273.596 16.9363H265.621C265.023 16.9363 264.757 17.1355 264.757 17.6004C264.757 17.9988 265.023 18.198 265.488 18.2644C266.02 18.3308 266.286 18.5301 266.286 18.8621C266.286 18.9949 266.286 19.1941 266.219 19.3933C266.219 19.3933 264.026 26.8308 263.694 27.9597C263.627 28.1589 263.428 28.1589 263.362 27.9597C263.029 26.8308 260.77 19.7254 260.77 19.7254C260.57 19.1941 260.504 18.9949 260.504 18.7293C260.504 18.3308 260.637 18.198 261.301 18.1316C261.833 18.0652 262.033 17.866 262.033 17.534C262.033 17.1355 261.767 16.9363 261.235 16.9363H256.716C256.184 16.9363 255.918 17.2019 255.918 17.6668C255.918 17.9988 256.118 18.198 256.583 18.2644C257.115 18.3972 257.314 18.5301 257.447 18.8621C257.513 18.9285 257.58 19.1277 257.646 19.3933C257.646 19.3933 258.444 21.7175 258.444 21.8503C258.577 22.3152 258.51 22.78 258.444 23.1785C258.377 23.3113 257.181 26.8972 256.716 28.1589C256.649 28.3581 256.45 28.3581 256.384 28.1589C255.985 26.9636 253.46 19.7254 253.46 19.7254L253.127 19.2605C253.061 19.0613 253.061 18.9285 253.061 18.7293C253.061 18.3308 253.26 18.198 253.792 18.1316C254.39 18.0652 254.589 17.9324 254.589 17.534C254.589 17.1355 254.39 16.9363 253.858 16.9363H249.073C248.542 16.9363 248.276 17.1355 248.276 17.534C248.276 17.9324 248.409 18.0652 248.94 18.1316C249.671 18.2644 249.804 18.3972 250.137 19.3269L254.656 31.4792C254.988 32.3425 255.32 32.6081 255.985 32.6081C256.317 32.6081 256.583 32.4753 256.782 32.3425C256.982 32.1433 257.048 32.0105 257.248 31.4128C257.248 31.4128 259.308 25.7019 259.374 25.5027C259.441 25.3035 259.64 25.3035 259.707 25.5027C259.773 25.7019 261.7 31.4128 261.7 31.4128C261.966 32.2761 262.298 32.5417 263.029 32.5417C263.694 32.5417 264.026 32.2097 264.359 31.0808L268.014 19.1941C268.147 18.5301 268.412 18.2644 268.811 18.2644ZM305.695 30.8152C304.764 30.8152 304.432 30.7487 304.166 30.6159C303.9 30.4831 303.834 30.2175 303.834 29.2214V19.4597C303.834 18.8621 303.834 18.7293 303.9 18.5301C303.967 18.3308 304.166 18.198 304.366 18.198H304.897C305.23 18.198 305.495 17.9324 305.495 17.534C305.495 17.0027 305.23 16.8699 304.366 16.8699H300.112C299.315 16.8699 299.049 17.0027 299.049 17.534C299.049 17.9324 299.315 18.198 299.647 18.198H300.112C300.245 18.198 300.445 18.3308 300.511 18.5301C300.578 18.7293 300.578 18.7957 300.578 19.4597V29.9519C300.578 30.5495 300.578 30.6159 300.511 30.8152C300.445 30.948 300.312 31.0808 300.112 31.0808H299.647C299.315 31.0808 299.049 31.3464 299.049 31.6784C299.049 32.2097 299.315 32.3425 300.046 32.3425H308.685C309.151 32.3425 309.416 32.2097 309.483 31.7448L309.815 29.9519C309.948 29.3542 309.749 29.0222 309.284 29.0222C309.084 29.0222 308.818 29.155 308.685 29.487C308.685 29.5534 308.619 29.6198 308.486 29.8855C308.22 30.4831 307.622 30.7487 306.825 30.7487C307.024 30.8152 305.695 30.8152 305.695 30.8152ZM322.243 29.0886C322.043 29.0886 321.777 29.2214 321.645 29.5534C321.645 29.6198 321.578 29.6862 321.445 29.9519C321.179 30.5495 320.581 30.8152 319.784 30.8152H317.458C316.727 30.8152 316.394 30.7487 316.062 30.6823C315.73 30.5495 315.597 30.2839 315.597 29.0886V26.1667C315.597 25.6355 315.663 25.4363 315.796 25.3035C315.929 25.2371 316.062 25.2371 316.727 25.2371H317.79C318.787 25.2371 318.92 25.3035 318.986 25.7683V25.9011C319.053 26.2995 319.252 26.4988 319.584 26.4988C320.05 26.4988 320.249 26.2331 320.249 25.4363V23.5105C320.249 22.7136 320.116 22.448 319.584 22.448C319.252 22.448 319.053 22.6472 318.986 23.0457V23.1785C318.92 23.6433 318.787 23.7097 317.79 23.7097H316.727C316.062 23.7097 315.863 23.7097 315.796 23.6433C315.663 23.5769 315.597 23.3113 315.597 22.78V19.9246C315.597 18.6629 315.73 18.5301 316.993 18.5301H319.186C320.249 18.5301 320.714 18.5965 320.98 19.1941C321.113 19.4597 321.179 19.659 321.179 19.7254C321.312 20.0574 321.578 20.0574 321.777 20.0574C322.176 20.0574 322.376 19.7254 322.309 19.1277L321.977 17.534C321.91 17.1355 321.645 16.9363 321.179 16.9363H311.942C311.144 16.9363 310.878 17.1355 310.878 17.6004C310.878 17.9324 311.144 18.2644 311.477 18.2644H311.942C312.075 18.2644 312.274 18.3972 312.341 18.5965C312.407 18.7957 312.407 18.9285 312.407 19.5261V29.8855C312.407 30.4831 312.407 30.6159 312.341 30.8152C312.274 30.948 312.141 31.1472 311.942 31.1472H311.477C311.144 31.1472 310.878 31.4128 310.878 31.7448C310.878 32.2761 311.144 32.4089 311.942 32.4089H320.98H321.578C322.043 32.4089 322.309 32.2761 322.376 31.8112L322.708 30.0183C322.907 29.4206 322.641 29.0886 322.243 29.0886ZM351.883 37.987C351.484 37.987 351.484 38.5182 351.484 38.7839C351.484 39.0495 351.55 39.3151 351.883 39.3151H353.81C354.142 39.3151 354.275 39.4479 354.275 39.7135V45.3581C354.275 45.7565 354.541 45.7565 355.006 45.7565C355.471 45.7565 355.737 45.6901 355.737 45.2916V39.6471C355.737 39.3151 355.936 39.2487 356.202 39.2487H358.063C358.395 39.2487 358.462 38.9831 358.462 38.5846C358.462 38.0534 358.262 37.9206 357.997 37.9206H351.883V37.987ZM341.05 37.987C340.718 37.987 340.585 38.1862 340.585 38.5182V45.2252C340.585 45.6237 340.718 45.8229 341.05 45.8229H346.965C347.297 45.8229 347.363 45.5573 347.363 45.1588C347.363 44.6276 347.231 44.4284 346.965 44.4284H342.379C342.18 44.4284 341.98 44.2956 341.98 44.0299V42.901C341.98 42.6354 342.18 42.5026 342.379 42.5026H345.037C345.303 42.5026 345.436 42.1706 345.436 41.8385C345.436 41.4401 345.37 41.1745 345.037 41.1745H342.379C342.18 41.1745 341.98 41.0417 341.98 40.8424V39.78C341.98 39.5807 342.113 39.4479 342.313 39.4479H346.965C347.363 39.4479 347.43 39.1159 347.43 38.7175C347.43 38.319 347.363 38.0534 347.031 38.0534H341.05V37.987ZM329.819 37.987C329.287 37.987 329.088 38.0534 329.088 38.4518V45.3581C329.088 45.6901 329.287 45.8229 329.752 45.8229C330.151 45.8229 330.55 45.8229 330.55 45.3581V43.1003C330.55 42.7682 330.749 42.5026 331.015 42.5026C331.48 42.5026 331.812 42.569 332.145 42.8346L334.604 45.4909C334.803 45.6901 334.936 45.8229 335.601 45.8229C336.199 45.8229 336.597 45.6237 336.199 45.1588C335.933 44.8268 333.208 41.9049 333.208 41.9049C333.009 41.7057 332.942 41.4401 333.208 41.2409C333.208 41.2409 335.468 39.1823 335.667 38.9831C335.933 38.7175 335.866 38.4518 335.601 38.1862C335.268 37.9206 334.936 37.8542 334.67 38.1862C334.67 38.1862 332.145 40.5104 331.879 40.776C331.68 40.9753 331.547 41.1081 330.949 41.1081C330.749 41.1081 330.616 40.9753 330.616 40.5768V38.4518C330.483 38.0534 330.218 37.987 329.819 37.987ZM318.189 39.3151H320.581C321.379 39.3151 322.043 39.7135 322.043 40.5768C322.043 41.4401 321.379 41.8385 320.581 41.8385H318.189C317.923 41.8385 317.657 41.7057 317.657 41.3737V39.6471C317.657 39.4479 317.923 39.3151 318.189 39.3151ZM323.439 40.6432C323.439 38.9831 322.243 37.987 320.648 37.987H316.594C316.394 37.987 316.262 38.1198 316.262 38.2526V45.3581C316.262 45.6901 316.461 45.8229 316.727 45.8229C316.993 45.8229 317.657 45.8893 317.657 45.4909V43.6315C317.657 43.4323 317.856 43.2331 318.056 43.2331H319.784C320.05 43.2331 320.249 43.3659 320.382 43.5651L321.578 45.4245C321.777 45.6901 322.043 45.7565 322.442 45.7565C323.173 45.7565 323.372 45.4909 323.173 45.1588C323.04 44.8932 321.91 43.3659 321.844 43.2331C321.711 43.0338 321.777 42.9674 321.977 42.7682C322.442 42.5026 323.439 42.0378 323.439 40.6432ZM306.094 42.6354C306.16 42.5026 306.958 40.9089 307.024 40.7096C307.09 40.5104 307.29 40.5104 307.423 40.7096C307.489 40.9089 308.287 42.569 308.353 42.6354C308.42 42.7682 308.287 42.901 308.154 42.901H306.293C306.094 42.9674 306.027 42.8346 306.094 42.6354ZM303.236 45.3581C303.037 45.8229 303.701 45.8229 303.9 45.8229C304.1 45.8229 304.632 45.7565 304.698 45.5573L305.163 44.694C305.296 44.4284 305.429 44.2292 305.628 44.2292H308.818C308.951 44.2292 309.084 44.362 309.151 44.4948L309.682 45.5573C309.815 45.8229 310.147 45.8229 310.413 45.8229C310.679 45.8229 311.344 45.7565 311.211 45.4245C311.144 45.2252 307.888 38.2526 307.888 38.2526C307.755 38.0534 307.622 37.9206 307.29 37.9206C306.958 37.9206 306.758 38.0534 306.692 38.2526L303.236 45.3581ZM294.729 41.3073L296.989 38.2526C297.122 38.0534 297.321 37.9206 297.587 37.9206C297.853 37.9206 298.052 37.987 298.185 38.4518L298.983 45.4245C298.983 45.8229 298.385 45.8229 298.119 45.8229C297.919 45.8229 297.521 45.6901 297.521 45.4245L296.989 41.2409C296.922 41.0417 296.856 40.9753 296.723 40.9753C296.59 40.9753 296.59 41.0417 296.457 41.1081L294.596 43.4987C294.53 43.6315 294.397 43.6979 294.198 43.6979C293.998 43.6979 293.865 43.6315 293.799 43.4323L292.138 41.2409C292.071 41.1745 292.005 41.1081 291.872 41.1081C291.739 41.1081 291.672 41.2409 291.672 41.3737L291.141 45.4245C291.074 45.7565 290.676 45.8229 290.343 45.8229C290.077 45.8229 289.745 45.6901 289.745 45.4245L290.543 38.6511C290.609 38.2526 290.742 37.987 291.274 37.987C291.407 37.987 291.672 38.0534 291.872 38.319L293.998 41.3073C294.131 41.4401 294.264 41.6393 294.397 41.5729C294.464 41.6393 294.663 41.5065 294.729 41.3073Z" fill="#046F46"/>
<path fill-rule="evenodd" clip-rule="evenodd" d="M499.122 10.4184C497.545 10.4184 496.276 11.692 496.276 13.274V39.9035C496.276 41.4856 497.545 42.7591 499.122 42.7591H515.386C515.371 42.7281 515.357 42.6998 515.342 42.6658L515.085 42.1637C514.446 40.9097 513.932 38.0999 513.685 34.5044L513.533 32.2868L512.464 32.3626C510.614 32.4939 509.002 32.1075 507.42 31.1534C506.964 30.8785 506.56 30.6536 506.522 30.6536C506.415 30.6536 506.451 33.6068 506.57 34.6402C506.735 36.0587 507.196 36.2587 507.84 35.1909C508.301 34.4272 508.839 33.7817 509.015 33.7817C509.367 33.7817 509.312 34.2323 508.819 35.3862C506.818 40.0699 505.765 40.9889 504.196 39.4203C503.482 38.7056 503.025 37.8479 502.628 36.4784C502.274 35.2549 501.762 32.7259 501.575 31.2793C501.28 28.9904 501.39 29.2553 500.572 28.8665C499.965 28.5779 499.793 28.4224 499.568 27.9572C499.216 27.2301 499.109 26.4694 499.337 26.3218C499.431 26.2612 499.93 26.1553 500.446 26.0865L501.385 25.9613L501.483 25.2107C501.892 22.0887 502.889 17.3523 503.458 15.833C503.943 14.5363 505.653 13.2127 507.338 12.8294C508.781 12.5013 508.916 12.6966 508.506 14.5124C507.868 17.3323 507.488 20.6901 507.424 24.0843L507.391 25.8361H512.966L514.192 22.9582C514.865 21.3754 516.17 18.308 517.09 16.1418C518.166 13.6095 518.878 12.0951 519.083 11.9005C519.259 11.7341 519.854 11.3825 520.404 11.1191L521.405 10.6403C521.604 10.541 521.796 10.464 521.98 10.4183L499.122 10.4184ZM522.633 10.4184C522.784 10.4674 522.923 10.5564 523.048 10.696L523.577 11.0451C524.275 11.5067 524.595 12.0505 524.595 12.7786C524.596 13.9018 520.792 31.8832 519.318 37.723C518.484 41.0283 518.39 41.2017 517.341 41.3643C516.712 41.4618 516.087 41.9811 516.087 42.4058C516.073 42.5359 516.056 42.6517 516.037 42.7589H525.769C527.346 42.7589 528.616 41.4853 528.616 39.9034V13.2738C528.616 11.6918 527.346 10.4182 525.769 10.4182L522.633 10.4184Z" fill="#ED1B23"/>
<path d="M536.503 13.8955H546.42L550.248 29.2184L554.058 13.8955H563.943V39.0783H557.786V19.8737L553.01 39.0783H547.435L542.676 19.8737V39.0783H536.502L536.503 13.8955Z" fill="#ED1B23"/>
<path d="M583.078 34.9213H574.491L573.31 39.0783H565.605L574.774 13.8955H582.994L592.163 39.0783H584.276L583.078 34.9213ZM581.497 29.476L578.801 20.4233L576.122 29.476H581.497Z" fill="#ED1B23"/>
<path d="M593.992 39.0783V13.8955H606.556C608.886 13.8955 610.666 14.1016 611.898 14.5139C613.129 14.9262 614.122 15.6935 614.876 16.8157C615.631 17.9265 616.008 19.2836 616.008 20.8868C616.008 22.2839 615.719 23.4921 615.143 24.5113C614.566 25.519 613.772 26.3378 612.763 26.9677C612.119 27.3685 611.238 27.7006 610.117 27.964C611.016 28.2732 611.67 28.5824 612.081 28.8915C612.358 29.0977 612.757 29.5386 613.279 30.2142C613.811 30.8898 614.166 31.4109 614.344 31.7774L617.988 39.0778H609.468L605.441 31.3823C604.931 30.3859 604.476 29.7389 604.077 29.4412C603.533 29.0518 602.917 28.8571 602.229 28.8571H601.564V39.0779L593.992 39.0783ZM601.564 24.0988H604.742C605.086 24.0988 605.752 23.9843 606.739 23.7553C607.238 23.6522 607.643 23.3888 607.954 22.9651C608.275 22.5414 608.436 22.0547 608.436 21.505C608.436 20.6919 608.187 20.0677 607.687 19.6326C607.188 19.1974 606.251 18.9798 604.875 18.9798H601.564L601.564 24.0988Z" fill="#ED1B23"/>
<path d="M617.737 13.8955H640.651V20.1139H632.963V39.0775H625.425V20.1139H617.737L617.737 13.8955Z" fill="#ED1B23"/>
<path d="M644.523 13.0552C643.556 13.0552 642.77 13.8416 642.77 14.8083C642.77 15.7749 643.556 16.5614 644.523 16.5614C645.489 16.5614 646.276 15.775 646.276 14.8083C646.276 13.8416 645.489 13.0552 644.523 13.0552ZM644.523 13.3115C645.351 13.3115 646.019 13.9801 646.019 14.8083C646.019 15.2032 645.866 15.5608 645.617 15.828L645.317 15.3582C645.236 15.2338 645.151 15.1304 645.061 15.0475C645.018 15.0093 644.956 14.9705 644.874 14.9312C645.098 14.9003 645.264 14.8281 645.371 14.7144C645.479 14.6007 645.532 14.4609 645.532 14.2952C645.532 14.1666 645.5 14.049 645.435 13.9428C645.37 13.8365 645.284 13.7627 645.175 13.7212C645.067 13.6787 644.909 13.6574 644.7 13.6574H643.664V15.9941H643.974V14.9566H644.332C644.412 14.9566 644.469 14.9602 644.504 14.9677C644.552 14.9793 644.599 15.0002 644.645 15.03C644.691 15.0597 644.744 15.1118 644.802 15.1862C644.861 15.2606 644.935 15.3678 645.026 15.508L645.335 15.9941H645.434C645.182 16.1883 644.867 16.305 644.523 16.305C643.695 16.305 643.026 15.6364 643.026 14.8082C643.026 13.9801 643.694 13.3115 644.523 13.3115ZM643.973 13.9157H644.713C644.886 13.9157 645.013 13.9514 645.092 14.0226C645.173 14.0937 645.213 14.1846 645.213 14.2951C645.213 14.3706 645.193 14.4406 645.151 14.5054C645.11 14.5691 645.049 14.616 644.97 14.6458C644.89 14.6745 644.779 14.6888 644.638 14.6888H643.973V13.9157Z" fill="#ED1B23"/>
<path d="M791.056 52.2666C789.095 51.6567 787.645 49.2792 788.019 47.2878C788.247 46.0757 789.206 44.4633 789.932 44.0722C790.431 43.8033 790.471 43.9102 790.376 45.2605C790.287 46.5209 790.388 46.861 791.046 47.5225C792.989 49.4759 796.94 47.7608 800.328 43.4922C801.669 41.8025 804.848 36.4996 805.424 34.9916C805.619 34.4798 805.558 34.4866 804.744 35.0696C803.519 35.9465 801.61 36.4223 800.506 36.1268C799.194 35.7754 798.231 34.1896 798.231 32.3791V30.9088L796.18 32.4732C790.79 36.583 785.155 37.3105 783.693 34.0857C782.547 31.5563 784.152 27.2409 787.307 24.3705C792.333 19.7985 799.345 18.8466 799.234 22.751C799.143 25.9844 794.976 29.5396 790.026 30.6069C788.663 30.9008 788.541 30.9928 788.822 31.5199C789.363 32.5356 791.667 32.3089 794.315 30.9797C796.107 30.0801 797.365 29.0632 800.553 25.9395C804.98 21.6025 806.739 20.5034 809.265 20.4982C810.067 20.4966 811.152 20.7176 811.675 20.9895C812.554 21.4466 812.654 21.4457 812.995 20.9767C813.296 20.5626 813.812 20.486 815.803 20.5587L818.243 20.6479L815.359 25.9951C813.575 29.3036 811.794 32.6138 810.016 35.9257C806.472 42.5346 804.555 45.3784 801.763 48.1733C798.788 51.1504 796.689 52.2926 793.901 52.4518C792.856 52.5113 791.575 52.4279 791.056 52.2666ZM806.658 31.0044C807.868 30.0786 808.793 28.8463 810.123 26.3872C811.334 24.148 811.165 23.4566 809.37 23.3032C808.38 23.2185 808.085 23.3842 806.651 24.831C804.932 26.5644 803.399 29.2738 803.399 30.5776C803.399 32.2777 804.76 32.4561 806.658 31.0044ZM790.685 27.357C792.338 26.7905 794.28 25.0898 794.28 24.2079C794.28 22.2942 791.186 23.2632 789.681 25.648C788.812 27.0258 788.583 27.8285 789.058 27.8285C789.196 27.8285 789.928 27.6164 790.685 27.357ZM752.745 36.403C750.861 35.5918 750.614 32.9395 752.029 28.6966C752.53 27.1917 752.941 25.8417 752.941 25.6969C752.941 25.5521 752.429 25.5753 751.804 25.7489C750.303 26.1656 747.08 25.8155 745.356 25.0491C744.285 24.5725 744.083 24.376 744.435 24.1523C744.683 23.9947 745.37 23.8636 745.961 23.8611C747.454 23.8544 750.24 23.0868 751.971 22.205C754.391 20.9724 756.383 18.8897 758.87 14.992L761.207 11.3284H763.913C765.401 11.3284 766.619 11.4094 766.619 11.5087C766.619 11.6074 765.67 13.3604 764.51 15.4045C759.291 24.6003 756.826 30.8321 758.2 31.3619C758.972 31.6595 760.725 30.6265 762.832 28.6315C764.631 26.9277 765.176 26.0715 768.887 19.1201L772.966 11.4812L775.757 11.3929C777.938 11.3238 778.514 11.3908 778.395 11.6985C778.31 11.9154 776.311 15.7361 773.951 20.1899C770.467 26.7639 769.66 28.5196 769.659 29.5246C769.659 30.2051 769.823 30.9271 770.023 31.1288C771.849 32.964 778.085 27.3292 781.284 20.9538C782.447 18.6355 783.584 14.7167 783.969 11.7036C784.625 6.55715 782.926 2.93417 779.743 2.69278C778.796 2.62128 778.919 2.36614 780.265 1.60561C782.655 0.255356 785.374 0.436551 787.311 2.07525C790.593 4.85123 790.921 11.7776 788.082 18.3629C784.063 27.6852 774.031 36.3908 767.177 36.5038C765.413 36.5326 765.047 36.4391 764.345 35.7766C763.901 35.3589 763.387 34.4481 763.202 33.7529L762.866 32.4891L761.434 33.5228C758.39 35.7216 754.306 37.0749 752.745 36.403ZM844.208 36.0171C842.766 35.6361 842.25 34.6372 842.269 32.2587L842.284 30.2466L839.965 32.2441C836.408 35.3064 833.552 36.4925 832.577 35.3119C831.902 34.4945 832.455 32.56 834.547 28.4109C836.874 23.796 836.846 23.2693 834.352 24.7365C831.93 26.1614 831.967 26.114 829.386 30.9607L826.986 35.4677H824.463C823.02 35.4677 821.941 35.3394 821.941 35.1683C821.941 35.0039 823.103 32.6871 824.524 30.0199C826.851 25.6529 827.54 23.8507 826.88 23.8593C826.553 23.8633 823.729 25.5652 822.976 26.2121C822.626 26.5131 821.28 28.7186 819.985 31.1132L817.631 35.4674H815.226C813.904 35.4674 812.822 35.3904 812.822 35.296C812.822 35.2012 813.468 33.9295 814.257 32.4696C815.046 31.0093 816.801 27.7521 818.156 25.2312L820.619 20.6479L823.104 20.5593C824.47 20.5104 825.588 20.5791 825.587 20.7121C825.586 20.845 825.313 21.4038 824.979 21.9541C824.645 22.5042 824.372 23.0141 824.372 23.0868C824.372 23.1599 825.456 22.653 826.781 21.9609C829.825 20.3705 832.307 20.0236 832.885 21.1084C833.085 21.4842 833.17 22.1879 833.074 22.6716C832.977 23.155 832.962 23.5507 833.038 23.5507C833.115 23.5507 833.83 23.1489 834.627 22.6575C837.8 20.7005 841.155 19.9271 842.005 20.9565C842.638 21.7235 842.154 23.7264 840.518 27.1083C839.676 28.849 839.058 30.2729 839.145 30.2729C839.425 30.2729 843.907 26.6594 846.41 24.4163C850.114 21.0965 853.533 19.803 855.827 20.8535C856.426 21.1276 856.693 21.1276 856.966 20.8535C857.177 20.6409 858.282 20.4951 859.683 20.4951H862.043L859.758 24.9067C857.587 29.0981 856.711 31.1896 857.127 31.1896C857.23 31.1896 858.558 30.2387 860.076 29.0761C862.956 26.8712 864.03 25.5988 865.706 22.4048L866.708 20.4951H869.098C871.74 20.4951 871.848 20.6008 870.853 22.2191L870.218 23.2509L873.034 21.8729C876.351 20.2504 878.166 20.0374 878.912 21.1826C879.566 22.1855 879.1 23.852 877.033 27.9198C876.076 29.8021 875.242 31.4591 875.179 31.6012C874.895 32.2422 876.505 31.0072 878.097 29.3621C880.345 27.0398 882.414 26.1504 884.076 26.7917C884.475 26.9454 884.425 27.0814 883.789 27.5846C882.899 28.2877 881.822 30.2644 881.822 31.1927C881.822 32.9319 883.98 34.8477 885.376 34.3484C887.11 33.7291 887.381 32.4424 886.381 29.5827C885.579 27.2879 885.579 24.5211 886.381 22.9408C887.546 20.6436 890.866 19.503 893.062 20.6445C895.257 21.7855 894.284 24.4674 891.676 24.4674C891.022 24.4674 890.962 24.3873 891.234 23.8764C891.954 22.5243 891.259 21.1722 890.044 21.5597C888.83 21.9471 888.934 23.114 890.444 26.0437C891.623 28.3323 891.853 29.0531 891.853 30.4722C891.853 33.2986 890.646 34.8826 887.683 35.945C885.958 36.5637 882.232 36.4886 880.734 35.8047C879.4 35.1958 878.27 33.9696 877.983 32.8207C877.885 32.4277 877.747 32.1063 877.676 32.1063C877.606 32.1063 876.834 32.6764 875.962 33.3734C873.135 35.6299 870.604 36.3697 869.502 35.2617C868.71 34.4658 869.114 33.0141 871.347 28.6351C872.449 26.4739 873.279 24.5193 873.192 24.292C872.975 23.7236 871.738 24.1911 869.921 25.5279C868.737 26.3997 868.121 27.2895 866.122 31.0176L863.736 35.4665L861.38 35.4671C859.834 35.4671 859.024 35.3491 859.024 35.1227C859.024 34.9333 859.445 34.0392 859.959 33.1366C860.472 32.2337 860.799 31.4952 860.685 31.4952C860.57 31.4952 859.82 32.0482 859.017 32.7238C856.907 34.4991 854.175 36.0788 853.213 36.0788C852.3 36.0788 851.121 34.8593 851.121 33.9139C851.121 33.4532 850.827 33.5616 849.374 34.5577C847.402 35.9095 845.661 36.4012 844.208 36.0171ZM850.099 31.2351C851.708 30.0633 852.801 28.7094 853.893 26.5344C855.083 24.1642 854.988 23.4288 853.476 23.3032C852.448 23.2176 852.176 23.3695 850.74 24.831C848.256 27.3588 846.607 31.3986 847.854 31.904C848.581 32.1989 848.909 32.1011 850.099 31.2351Z" fill="black"/>
</svg>
