<svg width="200" height="201" viewBox="0 0 200 201" fill="none" xmlns="http://www.w3.org/2000/svg">
<g clip-path="url(#clip0_16_227)">
<path d="M62.3739 134.559C59.7589 133.75 57.8253 130.597 58.3246 127.955C58.6286 126.347 59.9073 124.209 60.8747 123.69C61.5402 123.333 61.5933 123.475 61.4664 125.266C61.3485 126.938 61.4826 127.389 62.3601 128.267C64.9515 130.858 70.2186 128.583 74.7359 122.921C76.5241 120.68 80.7626 113.646 81.5302 111.646C81.7904 110.967 81.7093 110.976 80.6235 111.749C78.9906 112.912 76.4458 113.543 74.9734 113.151C73.2242 112.685 71.9407 110.582 71.9407 108.18V106.23L69.205 108.305C62.0192 113.756 54.5052 114.721 52.5566 110.444C51.0278 107.089 53.1686 101.365 57.3754 97.5579C64.0765 91.4936 73.4248 90.2311 73.2781 95.4099C73.1565 99.6986 67.6 104.414 61.0003 105.83C59.1822 106.22 59.0201 106.342 59.3942 107.041C60.1156 108.388 63.1877 108.087 66.7189 106.324C69.1077 105.131 70.786 103.782 75.0367 99.639C80.9385 93.8864 83.2847 92.4286 86.6522 92.4217C87.7221 92.4197 89.1682 92.7127 89.8653 93.0734C91.0378 93.6797 91.1703 93.6785 91.6251 93.0564C92.0263 92.5072 92.7145 92.4055 95.3699 92.5019L98.6232 92.6203L94.777 99.7128C92.3983 104.101 90.0238 108.492 87.6536 112.885C82.9276 121.651 80.3719 125.423 76.6489 129.13C72.6832 133.078 69.8846 134.593 66.1674 134.805C64.7732 134.884 63.0661 134.773 62.3739 134.559ZM83.1756 106.357C84.7895 105.129 86.0224 103.495 87.7959 100.233C89.4102 97.2628 89.1852 96.3457 86.792 96.1422C85.472 96.03 85.0789 96.2496 83.1663 98.1687C80.8748 100.468 78.8305 104.062 78.8305 105.791C78.8305 108.046 80.645 108.283 83.1756 106.357ZM61.879 101.519C64.0829 100.768 66.6719 98.5119 66.6719 97.3423C66.6719 94.804 62.5465 96.0891 60.5403 99.2524C59.3816 101.08 59.076 102.145 59.7095 102.145C59.8931 102.145 60.869 101.863 61.879 101.519ZM11.2923 113.518C8.78028 112.442 8.45119 108.924 10.337 103.296C11.0057 101.3 11.5529 99.5093 11.5529 99.3172C11.5529 99.1251 10.8708 99.1559 10.0371 99.3861C8.03617 99.939 3.73891 99.4745 1.43972 98.458C0.011891 97.8258 -0.257625 97.5652 0.211698 97.2685C0.542412 97.0594 1.45836 96.8855 2.24746 96.8823C4.23782 96.8734 7.95188 95.8553 10.2608 94.6856C13.4869 93.0507 16.1431 90.2882 19.4588 85.1184L22.5755 80.259H26.1829C28.1672 80.259 29.7908 80.3664 29.7908 80.4981C29.7908 80.629 28.5255 82.9542 26.9785 85.6655C20.0197 97.8627 16.734 106.129 18.5659 106.831C19.5954 107.226 21.9319 105.856 24.7409 103.21C27.1398 100.95 27.8665 99.8141 32.815 90.5938L38.2532 80.4616L41.9745 80.3445C44.8825 80.2529 45.6513 80.3417 45.4916 80.7498C45.3793 81.0376 42.713 86.1053 39.5663 92.0127C34.9217 100.733 33.8453 103.061 33.8445 104.394C33.8441 105.297 34.0625 106.255 34.33 106.522C36.7642 108.956 45.0782 101.482 49.3439 93.026C50.8945 89.951 52.4115 84.7532 52.9238 80.7567C53.7992 73.9304 51.5336 69.125 47.2891 68.8048C46.0274 68.7099 46.1907 68.3715 47.9862 67.3628C51.1725 65.5718 54.7978 65.8121 57.3807 67.9857C61.7566 71.6677 62.1935 80.8548 58.4081 89.5895C53.0498 101.954 39.6733 113.501 30.5349 113.651C28.1826 113.69 27.6954 113.566 26.7588 112.687C26.1671 112.133 25.4814 110.925 25.2349 110.003L24.7867 108.326L22.8778 109.697C18.8188 112.614 13.3738 114.409 11.2923 113.518ZM133.242 113.006C131.32 112.5 130.633 111.176 130.657 108.021L130.677 105.352L127.585 108.001C122.843 112.063 119.035 113.636 117.735 112.07C116.835 110.986 117.572 108.42 120.361 102.917C123.464 96.7959 123.427 96.0972 120.101 98.0434C116.872 99.9333 116.922 99.8705 113.48 106.299L110.28 112.277H106.916C104.993 112.277 103.553 112.107 103.553 111.88C103.553 111.662 105.103 108.589 106.998 105.051C110.1 99.2589 111.019 96.8685 110.139 96.8798C109.702 96.8851 105.937 99.1426 104.933 100.001C104.467 100.4 102.672 103.325 100.945 106.501L97.8065 112.277H94.6007C92.8373 112.277 91.3945 112.175 91.3945 112.049C91.3945 111.924 92.2557 110.237 93.3082 108.3C94.3608 106.364 96.7005 102.043 98.5068 98.6996L101.791 92.6203L105.104 92.5027C106.926 92.4379 108.416 92.5291 108.415 92.7054C108.414 92.8817 108.049 93.623 107.605 94.3529C107.159 95.0824 106.795 95.7588 106.795 95.8553C106.795 95.9521 108.241 95.2798 110.007 94.3618C114.065 92.2523 117.375 91.7923 118.145 93.231C118.412 93.7295 118.525 94.6629 118.397 95.3045C118.269 95.9457 118.248 96.4705 118.35 96.4705C118.453 96.4705 119.405 95.9375 120.468 95.2858C124.699 92.69 129.172 91.6642 130.305 93.0296C131.149 94.0469 130.504 96.7035 128.323 101.189C127.2 103.498 126.376 105.387 126.492 105.387C126.865 105.387 132.842 100.594 136.179 97.6187C141.117 93.2152 145.676 91.4997 148.735 92.893C149.533 93.2566 149.89 93.2566 150.253 92.893C150.535 92.611 152.009 92.4176 153.876 92.4176H157.023L153.976 98.2692C151.082 103.828 149.914 106.603 150.468 106.603C150.606 106.603 152.376 105.341 154.4 103.799C158.241 100.875 159.672 99.1871 161.907 94.9507L163.243 92.4176H166.429C169.952 92.4176 170.096 92.5579 168.769 94.7043L167.923 96.0729L171.678 94.2451C176.1 92.093 178.52 91.8105 179.515 93.3295C180.386 94.6597 179.766 96.8701 177.009 102.266C175.734 104.762 174.621 106.96 174.537 107.149C174.159 107.999 176.306 106.361 178.429 104.179C181.425 101.098 184.184 99.9187 186.401 100.769C186.932 100.973 186.866 101.154 186.017 101.821C184.831 102.754 183.395 105.375 183.395 106.607C183.395 108.914 186.272 111.455 188.134 110.793C190.445 109.971 190.807 108.264 189.474 104.471C188.404 101.428 188.404 97.7577 189.473 95.6615C191.027 92.6146 195.453 91.1017 198.381 92.6158C201.308 94.1292 200.011 97.6864 196.533 97.6864C195.662 97.6864 195.582 97.5802 195.944 96.9025C196.904 95.1091 195.978 93.3157 194.358 93.8297C192.739 94.3436 192.878 95.8913 194.891 99.7772C196.463 102.813 196.769 103.769 196.769 105.651C196.769 109.4 195.16 111.501 191.209 112.91C188.909 113.731 183.941 113.631 181.945 112.724C180.166 111.916 178.658 110.29 178.276 108.766C178.145 108.245 177.961 107.819 177.867 107.819C177.774 107.819 176.745 108.575 175.581 109.499C171.812 112.492 168.438 113.474 166.968 112.004C165.912 110.948 166.451 109.023 169.428 103.214C170.897 100.348 172.004 97.7553 171.888 97.4537C171.599 96.6999 169.949 97.32 167.527 99.0931C165.948 100.249 165.127 101.43 162.461 106.375L159.28 112.275L156.139 112.276C154.077 112.276 152.998 112.12 152.998 111.82C152.998 111.568 153.559 110.382 154.244 109.185C154.929 107.988 155.365 107.008 155.212 107.008C155.059 107.008 154.058 107.742 152.988 108.638C150.175 110.992 146.532 113.088 145.249 113.088C144.032 113.088 142.461 111.47 142.461 110.216C142.461 109.605 142.068 109.749 140.13 111.07C137.501 112.863 135.18 113.515 133.242 113.006ZM141.097 106.663C143.243 105.109 144.7 103.313 146.156 100.428C147.743 97.2843 147.617 96.3088 145.6 96.1422C144.23 96.0287 143.867 96.2302 141.952 98.1687C138.64 101.522 136.442 106.88 138.104 107.55C139.074 107.941 139.511 107.812 141.097 106.663Z" fill="black"/>
</g>
<defs>
<clipPath id="clip0_16_227">
<rect width="200" height="200" fill="white" transform="translate(0 0.5)"/>
</clipPath>
</defs>
</svg>
