<svg width="85" height="50" viewBox="0 0 85 50" fill="none" xmlns="http://www.w3.org/2000/svg">
<path d="M84.5509 35.3877C59.7935 54.4503 25.2613 54.2978 0.673096 35.0173L18.6945 26.5695C19.2462 26.3087 19.7839 26.0194 20.3056 25.7029L20.7204 25.4436C20.8685 25.3511 21.013 25.2548 21.1574 25.1548C23.431 23.5862 25.2944 21.4942 26.5905 19.055C28.0719 16.2589 28.5608 13.1701 28.583 10.0221C28.583 8.29253 28.5126 6.56297 28.4682 4.83712C28.4682 4.44949 28.4608 4.06061 28.446 3.67051C28.4312 2.49772 28.4188 1.3237 28.4089 0.148438H28.4349L29.1422 0.518792L31.0681 1.51505L42.2861 3.42237L53.8115 5.38525L54.0745 14.2738L54.1486 16.8218V17.2181L54.3226 23.0956L58.5706 24.8251L61.9038 26.1732L84.5509 35.3877Z" fill="#F2A196"/>
</svg>
