<svg width="66" height="86" viewBox="0 0 66 86" fill="none" xmlns="http://www.w3.org/2000/svg">
<path fill-rule="evenodd" clip-rule="evenodd" d="M52.019 4.96566C63.1222 12.2098 65.3147 25.6907 65.4665 37.9828C65.5306 43.1794 65.4817 48.3535 65.4327 53.5207C65.3375 63.5735 65.2426 73.6004 65.9813 83.7178C65.9295 82.9956 54.2226 81.2587 52.8856 81.1994C50.0747 81.0778 47.1674 81.3418 44.2929 81.6029C42.8763 81.7315 41.4677 81.8594 40.0824 81.9401C37.6665 82.0912 35.1965 82.1517 32.713 82.2126C27.9518 82.3294 23.1407 82.4473 18.5648 83.2067C17.6775 83.3544 16.8019 83.5039 15.9335 83.6521C11.3357 84.4369 6.93883 85.1875 2.07297 85.4585C1.68834 85.5253 1.2926 85.4474 0.961907 85.24C0.591553 84.9363 0.591553 84.3882 0.591553 83.9104C0.591553 78.1859 0.847985 72.464 1.10422 66.7465C1.46616 58.6702 1.82772 50.6027 1.46559 42.5492C1.14344 35.6977 2.27955 28.8558 4.79878 22.476C6.95115 16.9745 10.3277 12.0351 14.6724 8.0322C15.852 6.96617 17.118 5.99993 18.4574 5.14343C28.4089 -1.25629 41.9935 -1.5748 52.019 4.96566ZM19.3685 32.7303L24.5868 36.4339L41.4009 19.6235L39.2862 18.2865C37.2706 21.7024 34.5047 24.6152 31.1976 26.8046C27.5453 29.3135 23.5649 31.3075 19.3685 32.7303Z" fill="#00214E"/>
</svg>
