<svg width="59" height="59" viewBox="0 0 59 59" fill="none" xmlns="http://www.w3.org/2000/svg">
<path fill-rule="evenodd" clip-rule="evenodd" d="M53.6828 18.137C53.7879 18.6464 53.8951 19.1662 54.0081 19.6968C56.9289 33.3859 58.0354 57.9762 58.0354 57.9762C58.0354 57.9762 9.72645 58.2512 0.472656 57.324L0.547992 56.8806C1.86731 49.116 3.18654 41.3519 4.65757 33.6146C4.78148 32.9489 4.90557 32.2668 5.03199 31.5718C5.78543 27.4301 6.62154 22.8338 7.99253 18.5594C9.05575 15.2399 10.4528 12.1121 12.4031 9.54054C13.7915 7.79098 15.4898 6.31165 17.4132 5.17636C21.8083 2.48738 27.4243 0.895632 31.8997 0.540192C37.1757 0.122937 42.5969 1.79505 46.8405 4.92292C51.6957 8.50707 52.5684 12.7365 53.6828 18.137ZM25.8914 24.3357L31.0839 26.014L42.6959 19.0999L41.5493 18.4632L25.8914 24.3357Z" fill="#00214E"/>
</svg>
